<?xml version="1.0" encoding="UTF-8" standalone="no"?>
<!-- Created with Inkscape (http://www.inkscape.org/) -->

<svg
   xmlns:dc="http://purl.org/dc/elements/1.1/"
   xmlns:cc="http://creativecommons.org/ns#"
   xmlns:rdf="http://www.w3.org/1999/02/22-rdf-syntax-ns#"
   xmlns:svg="http://www.w3.org/2000/svg"
   xmlns="http://www.w3.org/2000/svg"
   xmlns:sodipodi="http://sodipodi.sourceforge.net/DTD/sodipodi-0.dtd"
   xmlns:inkscape="http://www.inkscape.org/namespaces/inkscape"
   width="143.81114"
   height="50"
   viewBox="0 0 38.050031 13.229168"
   version="1.1"
   id="svg5"
   inkscape:version="0.92.4 (5da689c313, 2019-01-14)"
   sodipodi:docname="logo.svg">
  <metadata
     id="metadata28">
    <rdf:RDF>
      <cc:Work
         rdf:about="">
        <dc:format>image/svg+xml</dc:format>
        <dc:type
           rdf:resource="http://purl.org/dc/dcmitype/StillImage" />
      </cc:Work>
    </rdf:RDF>
  </metadata>
  <sodipodi:namedview
     id="namedview7"
     pagecolor="#ffffff"
     bordercolor="#999999"
     borderopacity="1"
     inkscape:pageshadow="0"
     inkscape:pageopacity="0"
     inkscape:pagecheckerboard="0"
     inkscape:document-units="px"
     showgrid="false"
     units="px"
     inkscape:zoom="2.8284271"
     inkscape:cx="37.66759"
     inkscape:cy="5.4945098"
     inkscape:window-width="1440"
     inkscape:window-height="837"
     inkscape:window-x="-8"
     inkscape:window-y="-8"
     inkscape:window-maximized="1"
     inkscape:current-layer="text20233">
    <inkscape:grid
       type="xygrid"
       id="grid844"
       originx="114.53144"
       originy="93.153801" />
  </sodipodi:namedview>
  <defs
     id="defs2" />
  <g
     inkscape:label="Capa 1"
     inkscape:groupmode="layer"
     id="layer1"
     transform="translate(114.53149,87.895446)">
    <g
       id="g20647"
       transform="matrix(0.93037623,0,0,0.93037623,-46.007994,-39.679359)"
       style="stroke-width:1.07483995">
      <g
         id="g21004">
        <g
           id="g874"
           transform="matrix(0.50911616,0,0,0.50911616,-36.154273,-18.459751)">
          <g
             aria-label="EduETICA"
             style="font-size:17.78181458px;line-height:1.25;font-family:sans-serif;word-spacing:0px;fill:#ff7f2a;fill-opacity:1;stroke:none;stroke-width:1.44938374;stroke-miterlimit:4;stroke-dasharray:none;stroke-opacity:1"
             id="text20233">
            <path
               d="m -44.142924,-45.514977 h 3.396327 c 0.746836,0 1.404763,-0.675708 1.440327,-1.47589 0.03556,-0.800182 -0.622364,-0.675709 -2.329418,-0.675709 -0.622363,0 -1.849309,0.124473 -1.689272,-0.978 l 0.08891,-0.5868 c 0.142254,-0.978 0.444545,-0.995781 1.084691,-0.995781 1.049127,0 1.67149,-0.515673 1.67149,-1.422546 0,-0.622363 -0.302291,-0.675708 -1.386981,-0.675708 -0.5868,0 -0.640146,-0.462328 -0.551237,-1.084691 l 0.1956,-1.3692 c 0.07113,-0.480109 0.551237,-0.640145 0.906873,-0.640145 h 0.515672 c 1.333637,0 1.724836,-0.675709 1.724836,-1.3692 0,-0.693491 -0.408981,-0.764618 -1.155817,-0.764618 l -4.018691,0.01778 c -0.960218,0 -1.529236,0.693491 -1.511454,1.458109 0,0.444545 0.213382,0.853527 1.031345,0.853527 0.462328,0 0.213382,1.742618 -0.01778,3.165163 -0.177819,1.031345 -0.906873,3.005126 -0.906873,4.445453 0,1.226946 0.533455,2.098254 1.511454,2.098254 z"
               style="font-style:normal;font-variant:normal;font-weight:bold;font-stretch:normal;font-family:'Rainy Stars PERSONAL USE';-inkscape-font-specification:'Rainy Stars PERSONAL USE Bold';fill:#ff7f2a;fill-opacity:1;stroke:none;stroke-width:1.44938374;stroke-miterlimit:4;stroke-dasharray:none;stroke-opacity:1"
               id="path836" />
            <path
               d="m -36.640665,-47.577667 c -0.231163,0 -0.3912,-0.266727 -0.3912,-0.693491 0,-0.88909 0.640146,-2.06269 1.138036,-2.06269 0.248946,0 0.3912,0.248945 0.373419,0.711272 -0.01778,0.906873 -0.657928,2.044909 -1.120255,2.044909 z m 3.787527,-3.360763 c 0.302291,-1.138036 0.551236,-2.436109 0.729054,-3.23629 0.302291,-1.333636 -0.106691,-2.3472 -0.853527,-2.3472 -0.693491,0 -0.924654,0.853527 -1.191382,2.133818 -0.1956,1.013563 -0.426763,2.027127 -0.604581,2.84509 -0.248946,0 -0.284509,-0.675709 -1.066909,-0.675709 -1.475891,0 -3.200727,2.471673 -3.200727,4.623272 0,1.3692 0.711273,2.169382 1.707054,2.169382 1.031346,0 1.333637,-0.835746 1.671491,-0.835746 0.337854,0 0.693491,0.746836 1.618145,0.746836 0.657927,0 1.084691,-0.569018 1.084691,-1.138036 0,-0.782399 -0.7824,-0.284509 -0.533455,-1.493672 0.160037,-0.817964 0.480109,-2.169381 0.640146,-2.791745 z"
               style="font-style:normal;font-variant:normal;font-weight:bold;font-stretch:normal;font-family:'Rainy Stars PERSONAL USE';-inkscape-font-specification:'Rainy Stars PERSONAL USE Bold';fill:#ff7f2a;fill-opacity:1;stroke:none;stroke-width:1.44938374;stroke-miterlimit:4;stroke-dasharray:none;stroke-opacity:1"
               id="path838" />
            <path
               d="m -26.567822,-46.955303 c 0,-0.408982 -0.160037,-0.569019 -0.569019,-0.5868 -0.569018,-0.03556 -0.551236,-0.284509 -0.551236,-0.640146 0,-0.337854 0.1956,-1.333636 0.355637,-1.902654 0.142254,-0.462327 0.373418,-0.835745 0.391199,-1.333636 0,-0.462327 -0.1956,-0.800182 -0.69349,-0.800182 -0.675709,0 -1.351418,0.640146 -1.600364,2.116036 -0.05335,0.284509 -0.3912,2.364982 -0.977999,2.364982 -0.800182,0 -0.106691,-2.062691 0.08891,-3.182945 0.177818,-0.978 0,-1.298073 -0.551237,-1.298073 -0.533454,0 -1.031345,0.337855 -1.226945,0.942437 -0.124473,0.355636 -0.462327,1.795963 -0.711272,2.862872 -0.337855,1.582581 0.284509,2.809526 1.511454,2.827308 1.013563,0 1.458109,-0.835745 1.582581,-0.835745 0.142255,0 0.551237,0.729054 1.547018,0.729054 0.7824,0 1.404764,-0.462327 1.404764,-1.262508 z"
               style="font-style:normal;font-variant:normal;font-weight:bold;font-stretch:normal;font-family:'Rainy Stars PERSONAL USE';-inkscape-font-specification:'Rainy Stars PERSONAL USE Bold';fill:#ff7f2a;fill-opacity:1;stroke:none;stroke-width:1.44938374;stroke-miterlimit:4;stroke-dasharray:none;stroke-opacity:1"
               id="path840" />
            <path
               d="m -24.728794,-45.514977 h 3.396326 c 0.746836,0 1.404764,-0.675708 1.440327,-1.47589 0.03556,-0.800182 -0.622363,-0.675709 -2.329418,-0.675709 -0.622363,0 -1.849308,0.124473 -1.689272,-0.978 l 0.08891,-0.5868 c 0.142255,-0.978 0.444545,-0.995781 1.084691,-0.995781 1.049127,0 1.67149,-0.515673 1.67149,-1.422546 0,-0.622363 -0.30229,-0.675708 -1.386981,-0.675708 -0.5868,0 -0.640145,-0.462328 -0.551236,-1.084691 l 0.1956,-1.3692 c 0.07113,-0.480109 0.551236,-0.640145 0.906872,-0.640145 h 0.515673 c 1.333636,0 1.724836,-0.675709 1.724836,-1.3692 0,-0.693491 -0.408982,-0.764618 -1.155818,-0.764618 l -4.01869,0.01778 c -0.960218,0 -1.529236,0.693491 -1.511455,1.458109 0,0.444545 0.213382,0.853527 1.031346,0.853527 0.462327,0 0.213381,1.742618 -0.01778,3.165163 -0.177818,1.031345 -0.906873,3.005126 -0.906873,4.445453 0,1.226946 0.533455,2.098254 1.511455,2.098254 z"
               style="font-style:normal;font-variant:normal;font-weight:bold;font-stretch:normal;font-family:'Rainy Stars PERSONAL USE';-inkscape-font-specification:'Rainy Stars PERSONAL USE Bold';fill:#ff7f2a;fill-opacity:1;stroke:none;stroke-width:1.44938374;stroke-miterlimit:4;stroke-dasharray:none;stroke-opacity:1"
               id="path842" />
            <path
               d="m -18.724376,-55.366102 1.635927,-0.01778 c 0.231164,0 0.320073,0.124473 0.302291,0.3912 -0.106691,0.800182 -0.320073,2.3472 -0.693491,4.694399 -0.302291,1.867091 -0.426763,2.400545 -0.426763,3.058472 0,1.066909 0.337854,1.795964 1.08469,1.795964 0.942436,0 0.978,-1.209164 1.155818,-2.3472 0.284509,-1.902654 0.444546,-3.342981 0.622364,-4.712181 l 0.320072,-2.489454 c 0.03556,-0.266727 0.160037,-0.3912 0.3912,-0.3912 h 0.906873 c 0.569018,0 1.386981,-0.426763 1.386981,-1.315854 0,-0.978 -1.013563,-0.817963 -1.262508,-0.817963 l -4.60549,0.03556 c -0.835746,0 -1.529236,0.248946 -1.529236,1.298073 0,0.693491 0.30229,0.817963 0.711272,0.817963 z"
               style="font-style:normal;font-variant:normal;font-weight:bold;font-stretch:normal;font-family:'Rainy Stars PERSONAL USE';-inkscape-font-specification:'Rainy Stars PERSONAL USE Bold';fill:#ff7f2a;fill-opacity:1;stroke:none;stroke-width:1.44938374;stroke-miterlimit:4;stroke-dasharray:none;stroke-opacity:1"
               id="path844" />
            <path
               d="m -9.9960031,-48.644576 0.9068726,-6.721526 c 0.1600363,-1.209163 -0.3556363,-2.347199 -1.0846905,-2.347199 -0.569018,0 -1.031345,0.675709 -1.031345,1.938217 0,0.693491 -0.142255,1.635927 -0.408982,3.5208 -0.106691,0.871309 -0.711273,3.520799 -0.711273,4.783308 0,1.155818 0.515673,1.938218 1.155818,1.938218 1.049127,0 1.049127,-2.169382 1.1735999,-3.111818 z"
               style="font-style:normal;font-variant:normal;font-weight:bold;font-stretch:normal;font-family:'Rainy Stars PERSONAL USE';-inkscape-font-specification:'Rainy Stars PERSONAL USE Bold';fill:#ff7f2a;fill-opacity:1;stroke:none;stroke-width:1.44938374;stroke-miterlimit:4;stroke-dasharray:none;stroke-opacity:1"
               id="path846" />
            <path
               d="m -5.6244581,-45.514977 c 1.6892724,0 3.3963266,-1.369199 3.3785448,-2.64949 0,-0.533454 -0.3022909,-0.853527 -0.675709,-0.853527 -0.6934908,0 -1.3158543,1.049127 -2.3294177,1.049127 -0.8357453,0 -1.3514179,-0.729054 -1.3869815,-2.240509 -0.035564,-2.418326 1.1913815,-5.138944 2.2760722,-5.121162 0.8001817,0 0.6579272,1.493672 1.5470179,1.493672 0.5156726,0 0.9424362,-0.515672 0.960218,-1.458109 0.035564,-1.333636 -0.8357453,-2.276072 -2.0982541,-2.25829 -2.4894541,0.03556 -4.8899991,3.734181 -4.9077809,7.468362 0,2.756181 1.2980725,4.569926 3.2362903,4.569926 z"
               style="font-style:normal;font-variant:normal;font-weight:bold;font-stretch:normal;font-family:'Rainy Stars PERSONAL USE';-inkscape-font-specification:'Rainy Stars PERSONAL USE Bold';fill:#ff7f2a;fill-opacity:1;stroke:none;stroke-width:1.44938374;stroke-miterlimit:4;stroke-dasharray:none;stroke-opacity:1"
               id="path848" />
            <path
               d="m 1.5018821,-50.636139 c 0.5867999,-1.582582 1.1913816,-3.360763 1.3869816,-3.360763 0.1955999,0 0.2667272,1.813745 0.3200726,3.378545 -0.569018,-0.01778 -1.1913816,-0.03556 -1.7070542,-0.01778 z m 1.9915633,-6.917126 c -1.0669089,0 -1.9026542,1.973781 -2.400545,2.987345 -0.64014533,1.315854 -1.52923606,3.538581 -2.1693814,4.925563 -0.4978908,1.066908 -0.9068725,2.027126 -0.9246543,2.471672 -0.071127,0.995781 0.3734181,1.653708 1.0313452,1.653708 0.69349077,0 0.87130891,-0.711272 1.44032698,-2.222726 0.0711273,-0.231164 0.17781815,-0.515673 0.28450903,-0.835746 0.49789079,0.03556 0.99578159,0 1.33363609,0 l 1.1913816,-0.01778 c 0.035564,1.333636 0.3378545,3.076253 1.7070542,3.076253 0.8001816,0 1.6359269,-0.622363 1.6892724,-1.422545 0.035564,-0.569018 -0.3022909,-1.031345 -0.8357453,-1.08469 -0.2667272,-0.03556 -0.3911999,-0.675709 -0.4623272,-1.333636 -0.1244727,-1.315855 -0.2133818,-2.845091 -0.3200727,-3.805309 -0.1778181,-1.653709 -0.3200726,-4.392108 -1.5647996,-4.392108 z"
               style="font-style:normal;font-variant:normal;font-weight:bold;font-stretch:normal;font-family:'Rainy Stars PERSONAL USE';-inkscape-font-specification:'Rainy Stars PERSONAL USE Bold';fill:#ff7f2a;fill-opacity:1;stroke:none;stroke-width:1.44938374;stroke-miterlimit:4;stroke-dasharray:none;stroke-opacity:1"
               id="path850" />
          </g>
          <g
             id="g852">
            <path
               style="fill:#ff0000;stroke:none;stroke-width:0.284383px;stroke-linecap:butt;stroke-linejoin:miter;stroke-miterlimit:4;stroke-dasharray:none;stroke-opacity:1"
               d="m -60.870224,-55.787356 6.861688,-2.901923 -0.04538,5.202711 -2.190951,0.555255 -2.437455,0.27179 -1.945635,0.07425 -0.384911,0.290613 -0.269084,0.229261 -1.105413,-0.578707 -1.271225,-0.259762 -1.290278,0.16438 -2.17407,-0.257927 -0.563603,-0.489156 0.107381,-4.95722 z"
               id="path19845"
               inkscape:connector-curvature="0" />
            <g
               id="g43041"
               style="stroke:#162d50;stroke-width:0.82479799;stroke-miterlimit:4;stroke-dasharray:none;stroke-opacity:1"
               transform="matrix(1.3107107,0,0,1.3097014,16.261293,-11.997357)">
              <path
                 style="fill:#ffffff;stroke:#162d50;stroke-width:0.82479799;stroke-linecap:round;stroke-linejoin:round;stroke-miterlimit:4;stroke-dasharray:none;stroke-opacity:1"
                 d="m -64.047565,-31.678373 c 3.453984,0.942151 3.145379,0.245853 4.034509,0.588803 0.04837,0.01866 0.09659,0.04023 0.145051,0.06515 3.025819,1.774993 4.8206,4.553745 7.264378,6.826606 0.421884,0.687212 -0.401389,2.296219 -1.821474,1.184023 l -3.216153,-2.577604"
                 id="path39081"
                 sodipodi:nodetypes="cscccc"
                 inkscape:connector-curvature="0" />
              <path
                 style="fill:#ffffff;stroke:#162d50;stroke-width:0.82479799;stroke-linecap:round;stroke-linejoin:round;stroke-miterlimit:4;stroke-dasharray:none;stroke-opacity:1"
                 d="m -53.646623,-31.678373 c -2.794056,0.98111 -4.267892,0.138905 -5.015632,0.68817 l -2.914724,3.004415 c 0.934839,2.134485 3.446899,-0.563951 3.446899,-0.563951 l 4.582962,3.56429 3.318243,-2.704366"
                 id="path38571"
                 sodipodi:nodetypes="cccccc"
                 inkscape:connector-curvature="0" />
              <path
                 style="fill:none;stroke:#162d50;stroke-width:0.82479799;stroke-linecap:round;stroke-linejoin:round;stroke-miterlimit:4;stroke-dasharray:none;stroke-opacity:1"
                 d="m -58.480452,-24.016587 2.418088,1.878418 c 0.593874,0.410443 1.476715,0.240954 1.599793,-0.888584"
                 id="path39989"
                 sodipodi:nodetypes="ccc"
                 inkscape:connector-curvature="0" />
              <path
                 style="fill:none;stroke:#162d50;stroke-width:0.82479799;stroke-linecap:round;stroke-linejoin:round;stroke-miterlimit:4;stroke-dasharray:none;stroke-opacity:1"
                 d="m -56.056546,-22.159368 c -0.05233,0.838639 -0.868578,1.145811 -1.418897,0.878448 l -2.008349,-1.431211"
                 id="path40649"
                 sodipodi:nodetypes="ccc"
                 inkscape:connector-curvature="0" />
              <path
                 style="fill:none;stroke:#162d50;stroke-width:0.82479799;stroke-linecap:round;stroke-linejoin:round;stroke-miterlimit:4;stroke-dasharray:none;stroke-opacity:1"
                 d="m -68.181595,-27.785961 8.545583,7.517294 c 0.557125,0.536616 1.92343,0.3245 1.848012,-1.161846"
                 id="path41334"
                 sodipodi:nodetypes="ccc"
                 inkscape:connector-curvature="0" />
              <circle
                 style="fill:#ffffff;fill-opacity:1;stroke:#162d50;stroke-width:0.82479799;stroke-linecap:round;stroke-linejoin:round;stroke-miterlimit:4;stroke-dasharray:none;stroke-opacity:1"
                 id="path42228"
                 cx="-64.981682"
                 cy="-23.794636"
                 r="0.92524946" />
              <circle
                 style="fill:#ffffff;fill-opacity:1;stroke:#162d50;stroke-width:0.82479799;stroke-linecap:round;stroke-linejoin:round;stroke-miterlimit:4;stroke-dasharray:none;stroke-opacity:1"
                 id="path42350"
                 cx="-63.375858"
                 cy="-22.780846"
                 r="0.737611" />
              <circle
                 style="fill:#ffffff;fill-opacity:1;stroke:#162d50;stroke-width:0.82479799;stroke-linecap:round;stroke-linejoin:round;stroke-miterlimit:4;stroke-dasharray:none;stroke-opacity:1"
                 id="path42476"
                 cx="-62.09528"
                 cy="-21.717777"
                 r="0.80367857" />
              <circle
                 style="fill:#ffffff;fill-opacity:1;stroke:#162d50;stroke-width:0.82479799;stroke-linecap:round;stroke-linejoin:round;stroke-miterlimit:4;stroke-dasharray:none;stroke-opacity:1"
                 id="path42580"
                 cx="-60.573864"
                 cy="-20.809875"
                 r="0.84510046" />
            </g>
            <g
               id="g52540"
               transform="matrix(1.7174962,0,0,1.7391791,43.646579,45.447362)"
               style="fill:#5599ff;stroke:#162d50;stroke-width:0.62527001;stroke-miterlimit:4;stroke-dasharray:none;stroke-opacity:1">
              <path
                 style="fill:#2a7fff;stroke:#162d50;stroke-width:0.62527001;stroke-linecap:round;stroke-linejoin:round;stroke-miterlimit:4;stroke-dasharray:none;stroke-opacity:1"
                 d="m -60.854168,-63.500001 -6.614583,2.645827 6.614583,2.64584 6.614594,-2.64584 z"
                 id="path51264"
                 sodipodi:nodetypes="ccccc"
                 inkscape:connector-curvature="0" />
              <path
                 style="fill:#5599ff;stroke:#162d50;stroke-width:0.62527001;stroke-linecap:round;stroke-linejoin:round;stroke-miterlimit:4;stroke-dasharray:none;stroke-opacity:1"
                 d="m -64.822918,-59.53125 v 2.645833"
                 id="path51474"
                 sodipodi:nodetypes="cc"
                 inkscape:connector-curvature="0" />
              <path
                 style="fill:#5599ff;stroke:#162d50;stroke-width:0.62527001;stroke-linecap:round;stroke-linejoin:round;stroke-miterlimit:4;stroke-dasharray:none;stroke-opacity:1"
                 d="m -56.885418,-59.53125 v 2.645833"
                 id="path51476"
                 sodipodi:nodetypes="cc"
                 inkscape:connector-curvature="0" />
            </g>
            <path
               style="fill:none;stroke:#162d50;stroke-width:1.08067;stroke-linecap:round;stroke-linejoin:miter;stroke-miterlimit:4;stroke-dasharray:none;stroke-opacity:1"
               d="m -72.230746,-60.388947 v 4.505066"
               id="path52575"
               inkscape:connector-curvature="0" />
            <ellipse
               style="fill:#162d50;fill-opacity:1;stroke:none;stroke-width:1.08067;stroke-linecap:round;stroke-linejoin:round;stroke-miterlimit:4;stroke-dasharray:none;stroke-opacity:1"
               id="path52679"
               cx="-72.230743"
               cy="-55.983955"
               rx="1.3331816"
               ry="1.332155" />
          </g>
        </g>
      </g>
    </g>
  </g>
</svg>
